<mxfile host="65bd71144e">
    <diagram id="Wki89tDcalEruEF1k16V" name="Page-1">
        <mxGraphModel dx="1130" dy="569" grid="1" gridSize="10" guides="1" tooltips="1" connect="1" arrows="1" fold="1" page="1" pageScale="1" pageWidth="850" pageHeight="1100" math="0" shadow="0">
            <root>
                <mxCell id="0"/>
                <mxCell id="1" parent="0"/>
                <mxCell id="2" value="&lt;font style=&quot;font-size: 16px;&quot;&gt;Route Prefix&lt;/font&gt;" style="swimlane;whiteSpace=wrap;html=1;startSize=70;fillColor=#0050ef;fontColor=#ffffff;strokeColor=#001DBC;spacing=2;spacingRight=0;labelPosition=center;verticalLabelPosition=middle;align=center;verticalAlign=middle;" vertex="1" parent="1">
                    <mxGeometry x="80" y="90" width="120" height="130" as="geometry"/>
                </mxCell>
                <mxCell id="3" value="0-64 bits" style="text;html=1;strokeColor=none;fillColor=none;align=center;verticalAlign=middle;whiteSpace=wrap;rounded=0;fontSize=18;spacing=2;spacingRight=0;labelPosition=center;verticalLabelPosition=middle;" vertex="1" parent="2">
                    <mxGeometry x="20" y="80" width="80" height="40" as="geometry"/>
                </mxCell>
                <mxCell id="4" value="&lt;span style=&quot;font-size: 16px;&quot;&gt;Subnet Indentifier&lt;/span&gt;" style="swimlane;whiteSpace=wrap;html=1;startSize=70;fillColor=#0050ef;fontColor=#ffffff;strokeColor=#001DBC;spacing=2;spacingRight=0;labelPosition=center;verticalLabelPosition=middle;align=center;verticalAlign=middle;" vertex="1" parent="1">
                    <mxGeometry x="200" y="90" width="160" height="130" as="geometry"/>
                </mxCell>
                <mxCell id="7" value="0-64 bits" style="text;html=1;strokeColor=none;fillColor=none;align=center;verticalAlign=middle;whiteSpace=wrap;rounded=0;fontSize=18;spacing=2;spacingRight=0;labelPosition=center;verticalLabelPosition=middle;" vertex="1" parent="4">
                    <mxGeometry x="50" y="80" width="80" height="40" as="geometry"/>
                </mxCell>
                <mxCell id="8" value="&lt;span style=&quot;font-size: 16px;&quot;&gt;Interface Indentifier&lt;/span&gt;" style="swimlane;whiteSpace=wrap;html=1;startSize=70;fillColor=#0050ef;fontColor=#ffffff;strokeColor=#001DBC;spacing=2;spacingRight=0;labelPosition=center;verticalLabelPosition=middle;align=center;verticalAlign=middle;" vertex="1" parent="1">
                    <mxGeometry x="360" y="90" width="160" height="130" as="geometry"/>
                </mxCell>
                <mxCell id="10" value="0-64 bits" style="text;html=1;strokeColor=none;fillColor=none;align=center;verticalAlign=middle;whiteSpace=wrap;rounded=0;fontSize=18;spacing=2;spacingRight=0;labelPosition=center;verticalLabelPosition=middle;" vertex="1" parent="8">
                    <mxGeometry x="50" y="80" width="80" height="40" as="geometry"/>
                </mxCell>
            </root>
        </mxGraphModel>
    </diagram>
</mxfile>